<svg xmlns="http://www.w3.org/2000/svg" viewBox="0 0 32 32" role="img" aria-label="GitHub">
  <rect width="32" height="32" rx="6" fill="#111827"/>
  <path fill="#f9fafb" d="M16 6c-5.5 0-10 4.6-10 10.3 0 4.5 2.9 8.3 6.9 9.7.5.1.7-.2.7-.5v-1.8c-2.8.6-3.4-1.2-3.4-1.2-.5-1.2-1.1-1.5-1.1-1.5-.9-.6.1-.6.1-.6 1 .1 1.5 1 1.5 1 .9 1.6 2.4 1.1 3 .9.1-.7.4-1.1.7-1.4-2.2-.3-4.6-1.1-4.6-5 0-1.1.4-2 .1-2.7 0 0 .9-.3 2.8 1 .8-.2 1.7-.3 2.6-.3.9 0 1.8.1 2.6.3 1.9-1.3 2.8-1 2.8-1 .5.7.8 1.6.8 2.7 0 3.9-2.4 4.7-4.6 5 .4.3.8 1 .8 2.1v3.1c0 .3.2.6.7.5 4-1.4 6.9-5.2 6.9-9.7C26 10.6 21.5 6 16 6z"/>
</svg>
